<?xml version="1.0" standalone="no"?>
<!DOCTYPE svg PUBLIC "-//W3C//DTD SVG 20010904//EN"
 "http://www.w3.org/TR/2001/REC-SVG-20010904/DTD/svg10.dtd">
<svg version="1.0" xmlns="http://www.w3.org/2000/svg"
 width="705.000000pt" height="181.000000pt" viewBox="0 0 705.000000 181.000000"
 preserveAspectRatio="xMidYMid meet">

<g transform="translate(0.000000,181.000000) scale(0.100000,-0.100000)"
fill="#000000" stroke="none">
<path d="M2780 1610 l0 -170 370 0 370 0 0 170 0 170 -370 0 -370 0 0 -170z
m108 68 l9 -53 8 53 c7 49 9 52 36 52 l29 0 1 -87 c0 -99 12 -89 23 20 l8 67
33 0 33 0 13 -87 14 -88 3 88 3 87 37 0 c21 0 43 -5 50 -12 9 -9 12 -9 12 0 0
7 11 12 24 12 22 0 25 -6 33 -62 l9 -63 8 50 c12 77 10 75 76 75 52 0 60 -2
60 -19 0 -10 -9 -21 -20 -24 -12 -3 -20 -14 -20 -27 0 -13 8 -24 20 -27 13 -3
20 -14 20 -29 0 -17 -6 -24 -20 -24 -15 0 -20 -7 -20 -25 0 -18 5 -25 20 -25
15 0 20 -7 20 -25 0 -22 -4 -25 -40 -25 l-40 0 -1 93 c-1 104 -5 102 -22 -10
-11 -73 -14 -78 -38 -81 -29 -3 -32 2 -45 92 -6 46 -7 48 -19 25 -10 -18 -10
-31 0 -67 12 -38 11 -44 -2 -49 -18 -7 -43 21 -43 48 0 10 -4 21 -10 24 -6 4
-10 -10 -10 -34 0 -41 0 -41 -39 -41 -31 0 -41 4 -46 20 -3 11 -12 20 -20 20
-7 0 -15 -9 -18 -20 -4 -16 -14 -20 -46 -20 l-41 0 -1 43 -1 42 -11 -43 c-11
-48 -29 -51 -38 -6 l-6 29 -4 -30 c-3 -22 -10 -31 -26 -33 -23 -3 -23 -2 -23
122 l0 126 29 0 c28 0 30 -3 39 -52z m578 -48 c2 -79 5 -96 18 -98 9 -2 16
-13 16 -28 0 -21 -4 -24 -40 -24 l-40 0 0 126 c0 124 0 125 23 122 21 -3 22
-8 23 -98z"/>
<path d="M3140 1645 c0 -19 4 -35 10 -35 12 0 24 45 15 59 -13 22 -25 10 -25
-24z"/>
<path d="M3030 1599 c0 -22 4 -38 8 -35 8 5 4 76 -4 76 -2 0 -4 -18 -4 -41z"/>
<path d="M4589 1253 c-15 -2 -34 -12 -43 -22 -16 -18 -176 -581 -176 -620 0
-29 30 -41 104 -41 l64 0 16 53 c8 28 30 107 48 174 17 67 34 120 36 118 3 -3
35 -73 71 -156 72 -165 89 -187 159 -196 66 -9 80 7 152 175 36 83 67 148 70
146 3 -3 23 -71 45 -152 48 -174 28 -161 255 -161 l156 0 39 67 c62 108 49
102 201 102 l132 0 44 -75 c23 -41 50 -78 58 -82 8 -4 108 -8 223 -10 l207 -4
0 160 c0 89 3 161 8 161 4 0 75 -68 157 -150 91 -91 162 -154 180 -159 16 -5
63 -12 103 -16 68 -5 74 -4 97 19 l25 25 0 320 0 319 -62 4 c-35 1 -94 1 -133
-2 l-70 -5 -3 -147 c-1 -82 -6 -148 -9 -148 -4 0 -78 70 -164 156 l-157 156
-83 -7 c-138 -12 -129 7 -129 -280 0 -135 -3 -245 -8 -245 -4 0 -76 115 -160
255 -84 140 -161 259 -172 265 -32 17 -156 1 -179 -24 -10 -12 -88 -135 -171
-273 -84 -139 -155 -253 -159 -253 -3 0 -37 116 -75 258 -81 303 -83 308 -170
297 -31 -4 -65 -15 -76 -24 -10 -9 -52 -92 -92 -185 -40 -92 -77 -169 -81
-170 -4 0 -44 80 -87 179 -44 99 -88 186 -97 193 -16 12 -41 13 -94 5z m92
-49 c8 -9 57 -114 109 -233 52 -119 100 -216 105 -216 6 0 53 98 105 216 52
119 101 224 109 233 16 20 64 21 80 2 10 -11 171 -586 171 -609 0 -4 -24 -7
-52 -5 l-53 3 -59 218 c-32 119 -62 217 -65 217 -3 0 -46 -94 -95 -208 -48
-114 -95 -215 -104 -224 -17 -20 -62 -24 -79 -7 -6 6 -53 108 -104 226 -51
117 -96 210 -100 206 -4 -4 -33 -104 -65 -220 l-57 -213 -53 0 c-38 0 -52 4
-49 13 2 6 38 140 80 297 43 157 84 293 93 303 19 21 65 22 83 1z m1186 8 c13
-8 373 -601 373 -614 0 -4 -27 -8 -59 -8 l-59 0 -47 80 -47 80 -198 0 -199 0
-48 -80 -48 -80 -58 0 c-32 0 -56 3 -54 8 30 55 354 592 365 605 15 17 58 23
79 9z m783 -217 c124 -124 231 -225 238 -225 9 0 12 56 12 225 l0 225 50 0 50
0 0 -304 c0 -333 0 -336 -58 -336 -22 -1 -68 42 -257 235 -126 129 -233 235
-237 235 -5 0 -8 -103 -8 -230 l0 -230 -55 0 -56 0 3 298 c3 327 4 332 61 332
26 0 61 -31 257 -225z"/>
<path d="M5757 964 c-86 -145 -86 -144 70 -144 157 0 157 0 81 131 -33 57 -66
110 -72 116 -9 10 -27 -13 -79 -103z m57 -48 c14 -25 26 -47 26 -50 0 -3 -27
-6 -61 -6 -33 0 -59 3 -57 8 11 26 54 92 60 92 3 0 18 -20 32 -44z"/>
<path d="M155 1231 c-83 -38 -125 -119 -111 -212 9 -60 36 -102 87 -136 42
-28 43 -28 257 -33 197 -5 215 -7 228 -24 17 -24 18 -57 2 -78 -11 -14 -51
-17 -268 -21 -140 -3 -265 -9 -278 -13 -21 -6 -23 -11 -20 -73 l3 -66 320 0
c282 0 326 2 371 18 29 10 60 27 70 39 19 20 19 20 24 -18 l5 -39 105 0 c58 1
113 4 123 8 14 5 17 19 17 85 l0 79 178 6 c218 7 252 16 314 78 l48 48 0 -154
0 -155 79 0 c44 0 91 4 105 10 l26 10 0 323 0 324 -46 7 c-26 3 -73 6 -105 6
l-59 0 0 -66 0 -67 -40 46 c-74 83 -48 80 -765 84 -597 3 -632 2 -670 -16z
m563 -63 l3 -48 -248 0 c-274 0 -285 -2 -297 -60 -8 -42 16 -98 46 -104 13 -3
111 -7 218 -8 174 -3 199 -5 229 -23 61 -36 76 -67 76 -153 0 -65 -4 -82 -24
-111 -47 -66 -73 -71 -378 -71 l-273 0 0 45 0 44 265 3 c253 3 265 4 285 24
32 32 37 93 10 127 l-21 27 -174 0 c-205 0 -263 10 -312 53 -110 97 -69 262
73 296 21 5 147 8 279 8 l240 -2 3 -47z m717 21 c35 -18 59 -39 80 -74 26 -42
30 -58 30 -119 -1 -83 -25 -140 -77 -179 -53 -40 -100 -48 -263 -45 -163 3
-166 4 -151 64 l6 24 146 0 c107 0 152 4 173 15 54 28 78 123 46 185 -28 54
-54 60 -265 60 l-190 0 0 -265 0 -265 -55 0 -55 0 0 308 c0 170 3 312 7 316 4
4 123 6 263 4 251 -3 256 -3 305 -29z m313 -286 l2 -313 -55 0 -55 0 0 303 c0
228 3 306 12 315 7 7 30 12 53 10 l40 -3 3 -312z m-908 113 l0 -83 -47 23
c-43 22 -58 24 -213 24 -195 0 -226 5 -246 36 -13 18 -13 27 -3 46 7 13 17 26
23 30 6 4 118 8 249 8 l237 0 0 -84z m551 55 c32 -32 38 -79 18 -124 -17 -38
-44 -46 -186 -50 l-133 -4 0 103 0 104 136 0 136 0 29 -29z"/>
<path d="M1870 909 l0 -341 238 4 c218 4 242 6 302 28 85 31 166 110 195 190
41 115 20 259 -51 343 -81 96 -163 117 -463 117 l-221 0 0 -341z m520 280 c74
-35 110 -67 145 -131 27 -48 30 -61 30 -148 0 -80 -4 -103 -25 -145 -29 -59
-84 -116 -142 -147 -41 -22 -55 -23 -280 -26 l-238 -3 0 303 c0 230 3 307 13
317 9 10 62 12 227 9 207 -3 217 -4 270 -29z"/>
<path d="M1997 1113 c-13 -12 -8 -408 5 -421 16 -16 258 -16 313 -1 55 15 120
82 135 139 30 111 -11 223 -100 268 -40 20 -58 22 -195 22 -84 0 -155 -3 -158
-7z m341 -27 c37 -19 78 -65 92 -101 30 -78 1 -180 -63 -229 -32 -25 -40 -26
-165 -26 l-132 0 0 185 0 185 120 0 c85 0 129 -4 148 -14z"/>
<path d="M2660 910 l0 -340 308 2 307 3 0 75 0 75 -222 3 -223 2 0 60 0 60
208 2 207 3 3 63 3 62 -211 0 -210 0 0 60 0 60 223 2 222 3 3 58 c2 35 -2 64
-9 73 -9 11 -65 14 -310 14 l-299 0 0 -340z m588 258 l3 -48 -233 -2 -233 -3
-3 -60 c-2 -32 -1 -69 3 -82 l5 -23 211 0 c207 0 210 0 218 -22 4 -12 6 -30 3
-40 -4 -17 -21 -18 -217 -18 -185 0 -214 -2 -219 -16 -11 -28 -6 -150 6 -162
9 -9 75 -12 235 -12 l223 0 0 -45 0 -45 -290 0 -290 0 0 303 c0 224 3 306 12
315 9 9 82 12 288 10 l275 -3 3 -47z"/>
<path d="M3340 911 l0 -341 69 0 c63 0 69 2 75 23 3 12 6 131 6 265 l0 242
181 0 181 0 29 -29 c32 -32 39 -88 18 -134 -18 -39 -48 -46 -208 -48 l-151 -2
0 -68 0 -69 123 0 122 -1 79 -89 80 -90 93 0 c75 0 93 3 93 14 0 8 -38 55 -84
104 l-85 88 39 38 c56 54 74 108 68 203 -5 84 -20 122 -64 167 -61 60 -63 61
-376 64 l-288 3 0 -340z m590 285 c86 -45 120 -104 120 -203 -1 -87 -25 -143
-79 -180 -30 -21 -39 -33 -34 -48 3 -11 39 -55 81 -97 l77 -78 -70 0 -70 0
-83 90 -83 90 -120 0 -120 0 3 38 3 37 163 5 164 5 27 31 c55 61 48 178 -12
214 -29 18 -51 20 -229 20 l-198 0 0 -265 0 -265 -55 0 -55 0 0 308 c0 170 3
312 7 316 5 4 125 6 268 4 230 -3 264 -5 295 -22z"/>
<path d="M4117 963 c-4 -3 -7 -25 -7 -49 0 -29 5 -44 16 -48 9 -3 69 -6 135
-6 l119 0 0 55 0 55 -128 0 c-71 0 -132 -3 -135 -7z m243 -43 c6 -11 8 -25 5
-30 -3 -6 -53 -10 -111 -10 -93 0 -104 2 -104 18 0 34 21 42 112 42 77 0 89
-2 98 -20z"/>
</g>
</svg>
