<?xml version="1.0" standalone="no"?>
<!DOCTYPE svg PUBLIC "-//W3C//DTD SVG 20010904//EN"
 "http://www.w3.org/TR/2001/REC-SVG-20010904/DTD/svg10.dtd">
<svg version="1.0" xmlns="http://www.w3.org/2000/svg"
 width="914.000000pt" height="914.000000pt" viewBox="0 0 914.000000 914.000000"
 preserveAspectRatio="xMidYMid meet">

<g transform="translate(0.000000,914.000000) scale(0.100000,-0.100000)"
fill="#000000" stroke="none">
<path d="M4770 7670 c-52 -5 -129 -19 -170 -30 -41 -12 -85 -22 -97 -22 -13 0
-20 -5 -17 -10 4 -6 -2 -8 -15 -3 -13 4 -21 2 -21 -5 0 -6 -4 -9 -8 -6 -12 7
-93 -15 -87 -24 6 -9 -25 -23 -33 -15 -3 3 1 5 8 5 7 0 11 2 8 5 -9 9 -38 -6
-32 -16 3 -6 1 -16 -5 -23 -7 -8 28 0 83 18 51 17 91 35 88 40 -3 5 0 6 6 2 6
-3 37 3 69 14 154 54 508 64 712 20 104 -22 120 -24 105 -12 -15 13 -75 30
-134 38 -50 7 -52 8 -25 15 23 5 18 7 -25 6 -30 0 -113 3 -185 6 -71 3 -173 2
-225 -3z"/>
<path d="M4790 7558 c0 -4 14 -22 31 -40 45 -48 109 -133 109 -145 0 -6 -28
-14 -62 -17 -285 -32 -604 -185 -803 -384 l-80 -80 -70 38 c-68 37 -191 81
-268 95 -20 4 -37 11 -37 15 0 9 106 109 192 181 93 78 229 165 352 225 60 30
100 54 88 54 -11 0 -28 3 -38 7 -11 4 -15 3 -10 -5 4 -7 -18 -24 -61 -46 -37
-18 -83 -41 -100 -51 -18 -9 -38 -13 -44 -10 -13 9 -60 -35 -52 -48 4 -6 0 -8
-10 -4 -9 3 -19 1 -23 -5 -5 -7 -2 -8 7 -4 8 4 3 -1 -11 -12 -29 -24 -39 -21
-19 5 12 16 11 15 -8 -1 -13 -10 -20 -23 -17 -27 3 -5 2 -9 -3 -10 -24 -2 -46
-8 -51 -15 -4 -4 2 -4 13 0 17 6 17 4 -4 -18 -14 -14 -26 -24 -29 -22 -2 2
-20 -11 -40 -30 -20 -19 -40 -34 -44 -34 -4 0 -24 -19 -45 -42 -21 -23 -53
-58 -71 -78 -158 -168 -261 -376 -311 -629 -34 -168 -26 -596 15 -796 62 -306
249 -623 496 -842 34 -31 64 -59 66 -63 1 -3 -20 -21 -47 -38 -62 -40 -161
-147 -161 -173 0 -29 -168 -288 -317 -486 -46 -62 -82 -117 -81 -124 2 -7 -21
-30 -51 -53 -38 -29 -75 -73 -127 -152 -97 -147 -115 -158 -249 -160 -173 -3
-207 -18 -245 -106 -59 -136 -29 -228 75 -228 36 0 115 -27 115 -39 0 -15 -46
-118 -74 -164 -15 -26 -43 -85 -61 -132 -41 -103 -105 -185 -145 -185 -28 0
-69 -24 -58 -35 3 -4 18 1 32 10 14 10 26 13 26 8 0 -18 -37 -43 -66 -44 -23
-1 -25 -3 -6 -6 12 -2 22 -8 22 -13 0 -15 -52 -50 -74 -51 -19 0 -19 -1 -2 -8
17 -7 16 -9 -10 -32 -31 -27 -43 -52 -20 -43 28 11 50 -47 51 -128 0 -56 4
-78 13 -78 6 0 12 4 12 9 0 5 8 12 18 16 26 7 42 47 42 100 0 57 7 74 29 68
15 -4 20 3 25 31 7 39 26 49 26 15 0 -35 27 -5 35 39 4 20 9 47 11 60 3 13 -1
22 -8 22 -7 0 -21 12 -31 26 -18 24 -18 26 -1 45 23 26 30 24 48 -13 13 -25
14 -33 4 -40 -8 -6 -4 -7 11 -3 17 5 30 0 55 -23 68 -66 112 -52 175 55 21 38
48 77 60 87 12 11 21 28 21 40 0 18 4 17 30 -12 54 -60 132 -77 205 -46 l38
15 -7 -28 c-3 -15 -9 -59 -12 -96 -6 -62 -5 -70 17 -94 49 -53 145 -78 202
-52 31 14 57 76 64 154 3 33 11 65 17 70 33 28 59 82 71 148 7 40 25 98 39
130 14 32 26 63 26 71 0 7 9 21 19 30 14 13 21 38 26 92 5 49 13 81 25 94 10
12 37 67 60 123 39 95 46 105 98 142 30 22 87 74 126 116 l72 76 29 -48 c16
-26 38 -58 50 -71 47 -52 145 -239 145 -279 0 -11 -21 -82 -46 -157 -45 -132
-94 -335 -94 -388 0 -14 -18 -64 -41 -110 -86 -181 -217 -536 -226 -615 -4
-31 -11 -49 -19 -49 -7 0 -33 -27 -59 -59 -130 -170 -300 -522 -345 -718 -11
-49 -25 -107 -30 -131 -12 -50 1 -74 67 -132 112 -98 357 -148 594 -121 133
15 204 43 238 95 25 38 26 45 23 153 l-3 114 51 117 c65 146 108 226 187 349
19 29 40 72 49 95 37 107 149 284 290 459 52 65 94 124 94 133 0 32 45 46 201
61 85 9 172 18 194 21 42 5 170 -32 382 -112 96 -36 124 -54 88 -54 -9 0 -19
-8 -23 -17 -4 -10 -27 -52 -51 -93 -116 -195 -262 -551 -265 -643 -1 -41 4
-47 92 -107 55 -36 145 -57 186 -42 24 10 33 8 60 -13 83 -63 291 -131 436
-141 97 -8 276 10 315 30 17 9 38 16 48 16 23 0 47 23 47 45 0 40 -81 176
-181 302 l-57 72 14 63 c28 121 124 397 169 488 33 65 80 208 72 217 -3 2 -34
-53 -69 -124 -56 -112 -67 -128 -93 -134 -211 -48 -296 -56 -420 -40 -49 7
-113 21 -142 31 -96 34 -144 85 -80 85 46 0 40 13 -19 43 -50 25 -322 118
-433 148 l-35 9 70 42 c90 53 169 125 195 175 26 51 19 57 -20 19 -31 -30
-144 -111 -156 -111 -3 0 -41 -24 -83 -52 -42 -29 -87 -58 -99 -64 -33 -18
-116 -34 -214 -41 -79 -5 -89 -4 -89 11 0 9 -5 16 -12 16 -6 0 -43 22 -82 48
-148 102 -274 158 -298 134 -9 -9 -8 -12 5 -12 9 0 17 -4 17 -10 0 -5 17 -14
38 -19 40 -11 249 -162 258 -186 4 -9 -27 -61 -77 -130 -176 -242 -277 -399
-321 -500 -27 -59 -28 -60 -95 -84 -123 -42 -308 -29 -425 30 -44 22 -218 193
-218 214 0 7 13 24 28 37 22 18 31 38 41 88 20 103 170 491 247 641 19 36 34
79 34 95 0 40 90 400 105 422 5 7 95 -44 95 -54 0 -6 -6 -24 -14 -40 -21 -42
-40 -173 -32 -216 5 -28 14 -40 39 -51 68 -33 426 -127 647 -171 142 -28 296
-44 287 -30 -3 5 -20 11 -39 12 -58 4 -266 42 -402 72 -72 17 -132 30 -133 30
-2 0 -3 30 -4 68 0 37 -4 103 -8 147 -4 44 -7 81 -6 83 1 1 31 -4 66 -12 35
-8 91 -18 124 -22 33 -3 63 -8 67 -10 12 -7 19 54 9 73 -6 10 -24 70 -42 133
-83 304 -243 649 -371 803 -22 27 -38 50 -36 53 3 2 47 0 99 -6 52 -5 120 -10
152 -10 l57 0 55 -83 c29 -46 73 -118 96 -161 23 -42 44 -75 46 -72 7 7 -65
148 -120 234 -26 40 -47 74 -47 76 0 3 30 7 68 11 88 9 187 24 207 31 15 6 16
-6 9 -128 -5 -97 -4 -137 5 -142 6 -4 11 -6 11 -4 1 2 5 65 10 142 5 76 10
140 12 141 2 2 16 7 32 11 l28 7 -8 -54 c-5 -30 -9 -76 -9 -104 0 -42 3 -50
20 -53 11 -1 31 -5 45 -8 l25 -6 -22 -18 c-12 -9 -43 -24 -68 -31 -25 -7 -45
-17 -45 -21 0 -15 50 -8 102 15 91 39 93 24 6 -60 -43 -42 -78 -82 -78 -89 0
-7 -6 -14 -12 -17 -10 -3 -9 -20 5 -76 11 -40 17 -74 15 -76 -5 -5 -112 -13
-203 -15 -77 -2 -78 -3 -35 -12 25 -5 93 -7 151 -5 l106 3 26 -47 c27 -47 98
-119 118 -119 6 0 -12 28 -39 63 -44 56 -72 98 -72 110 0 2 19 7 41 11 30 5
46 3 58 -7 22 -20 58 -30 65 -19 3 5 -7 15 -22 22 l-27 13 32 10 c25 8 38 6
58 -7 25 -16 26 -16 46 19 20 33 55 62 65 53 2 -3 -10 -45 -26 -94 -17 -49
-29 -96 -27 -104 4 -21 38 47 77 157 18 51 39 98 46 104 21 17 18 -65 -5 -176
-10 -49 -17 -92 -14 -95 8 -8 41 42 52 81 6 20 11 83 11 140 0 76 4 110 15
126 14 20 13 21 -5 16 -17 -5 -20 0 -20 26 0 25 -4 31 -22 31 -30 0 -148 88
-148 110 0 14 14 18 77 24 42 3 82 11 87 16 10 10 -17 142 -55 265 -18 59 -18
60 3 82 12 13 25 23 29 23 8 0 79 69 79 78 0 3 7 14 17 24 30 33 -3 19 -37
-17 -18 -19 -36 -32 -40 -30 -3 2 -21 -13 -39 -34 -23 -27 -39 -37 -52 -34
-14 4 -19 0 -19 -14 0 -18 -28 -53 -42 -53 -4 0 -9 14 -13 30 -10 47 -27 36
-20 -13 l7 -43 -42 -14 c-36 -12 -43 -12 -51 1 -7 11 -9 10 -9 -6 0 -12 -6
-27 -12 -34 -11 -10 -10 -11 5 -6 10 4 17 2 17 -4 0 -6 5 -11 10 -11 6 0 10 6
10 13 0 7 16 21 35 30 43 20 45 21 45 5 0 -7 11 -39 24 -70 23 -56 23 -57 5
-88 -31 -51 -23 -71 12 -30 34 40 46 75 31 93 -5 6 -19 37 -30 69 l-21 56 25
17 c14 9 27 15 29 13 4 -4 51 -190 59 -235 6 -36 4 -37 -81 -46 -32 -4 -46 -1
-58 13 -9 10 -14 23 -11 28 10 17 -6 72 -20 72 -8 0 -23 6 -34 12 -14 9 -22
10 -31 1 -15 -15 4 -49 31 -58 12 -4 20 -15 20 -28 0 -20 -5 -22 -55 -22 -30
0 -55 1 -55 2 0 2 7 21 16 43 25 62 5 69 -35 13 -28 -39 -31 -50 -22 -70 6
-12 15 -23 21 -23 5 0 10 -4 10 -10 0 -12 -59 -13 -77 -2 -10 6 -11 26 -3 88
13 98 14 102 12 137 -2 31 -22 28 -22 -3 0 -20 -33 -44 -53 -37 -7 2 -10 21
-8 50 4 66 -14 58 -25 -10 l-9 -58 -75 -12 c-74 -11 -238 -19 -244 -12 -1 2
-35 47 -73 100 -74 100 -123 150 -62 63 19 -27 36 -51 39 -54 12 -11 60 -90
62 -102 2 -9 -25 -11 -112 -10 -137 3 -188 9 -216 27 -14 9 -25 10 -31 4 -7
-7 -38 -2 -94 15 -179 53 -346 58 -481 16 -78 -24 -75 -25 -82 3 -3 12 -21 40
-41 61 -20 22 -33 46 -30 53 2 8 8 12 13 9 4 -2 13 8 20 23 7 15 40 60 73 100
34 40 59 74 56 77 -8 8 -128 -128 -148 -168 -24 -46 -31 -51 -66 -37 -28 10
-93 4 -93 -9 0 -4 20 -7 44 -7 82 0 77 -13 -64 -170 -70 -77 -102 -105 -120
-106 -17 -1 -19 -3 -7 -6 22 -6 22 -3 -13 -73 -34 -67 -36 -80 -15 -80 8 0 15
8 15 18 0 10 14 40 31 66 l30 49 40 -39 c35 -34 40 -43 35 -72 -3 -20 -23 -53
-50 -83 -44 -49 -60 -86 -33 -76 16 5 101 -37 149 -75 37 -29 55 -67 78 -165
8 -38 9 -57 0 -72 -14 -28 -19 -27 -35 12 -8 17 -14 25 -15 16 0 -8 6 -23 13
-33 14 -20 11 -66 -4 -66 -5 0 -9 -10 -10 -22 0 -16 -5 -11 -15 18 -8 23 -31
60 -51 84 -36 41 -36 43 -21 69 27 44 69 134 64 138 -7 8 -37 -32 -71 -93 -17
-31 -34 -56 -38 -56 -4 0 -21 2 -38 6 -29 6 -30 7 -15 28 35 49 12 125 -44
148 -40 16 -67 -1 -120 -79 -41 -62 -53 -94 -25 -71 11 9 15 9 15 1 0 -6 -12
-16 -26 -22 -15 -5 -24 -13 -20 -16 4 -4 -15 -28 -41 -55 l-47 -47 -39 40
c-22 22 -42 38 -45 35 -3 -3 14 -23 37 -43 l42 -38 -50 -50 -51 -49 0 29 c-1
47 -35 112 -72 135 -36 22 -48 25 -48 11 0 -5 9 -13 20 -16 38 -12 70 -74 70
-135 0 -52 -3 -58 -48 -107 l-47 -53 -85 43 c-125 63 -130 66 -130 107 0 19 4
50 9 68 5 17 6 32 1 32 -13 0 -33 -96 -25 -121 7 -20 5 -21 -28 -15 -22 4 -36
3 -39 -5 -2 -7 -13 -3 -28 9 -22 18 -25 28 -24 77 3 93 56 197 86 167 8 -8 21
-6 49 9 43 21 167 27 186 8 8 -8 13 -8 17 0 4 6 18 11 30 11 15 0 26 7 29 20
3 11 13 20 22 20 9 0 28 9 42 20 35 28 85 26 121 -5 36 -30 42 -31 35 -5 -5
18 -15 24 -35 21 -5 0 -8 4 -8 10 0 5 -6 7 -12 3 -8 -5 -7 -1 2 10 14 17 12
18 -33 15 -26 -2 -47 -1 -47 3 0 3 15 26 33 50 35 45 66 55 116 37 17 -7 21
-14 16 -31 -7 -22 -6 -22 7 -4 12 15 22 18 49 13 l34 -7 -24 19 -24 18 49 36
c71 53 74 56 74 75 0 13 -5 12 -23 -9 -12 -14 -43 -42 -68 -62 -44 -34 -49
-36 -102 -30 -32 3 -57 9 -57 13 0 18 45 62 94 89 38 22 67 31 102 32 l49 1
-39 9 c-22 5 -42 11 -44 14 -4 3 51 79 68 95 6 5 134 203 168 260 11 19 32 58
45 87 31 63 148 253 157 253 4 0 34 27 68 60 33 33 65 60 70 60 5 0 36 -18 68
-39 33 -22 73 -43 89 -47 17 -4 35 -13 40 -19 6 -7 53 -27 105 -45 52 -18 152
-52 221 -75 200 -68 408 -94 621 -76 139 12 283 43 338 74 19 11 85 47 145 80
61 33 135 78 165 100 138 101 281 251 328 342 59 117 194 341 209 347 10 3 37
7 60 7 39 1 44 -2 62 -37 24 -47 53 -157 49 -185 -2 -16 -15 -24 -50 -33 l-48
-12 0 73 c0 41 -4 76 -8 79 -5 3 -8 -23 -8 -58 0 -68 -17 -121 -41 -130 -8 -3
-11 -11 -8 -17 4 -5 -22 -36 -57 -67 -34 -31 -96 -88 -136 -126 -40 -37 -75
-66 -78 -64 -2 3 3 25 12 51 29 86 9 84 -24 -2 -18 -47 -49 -112 -70 -145 -20
-34 -37 -74 -38 -91 -5 -69 -48 -210 -62 -201 -5 3 -6 -14 -3 -37 12 -88 6
-822 -8 -982 -12 -137 -17 -163 -35 -184 -21 -24 -91 -62 -158 -86 l-38 -14 0
147 c0 232 -14 258 -20 37 l-5 -190 -55 -12 c-66 -13 -299 -16 -352 -4 -21 5
-38 7 -38 5 0 -10 50 -27 94 -33 l51 -6 6 -110 5 -110 3 85 c2 47 4 94 4 106
0 20 8 22 116 33 64 6 129 14 144 17 25 6 28 4 23 -17 -3 -13 -7 -76 -10 -139
-6 -125 7 -125 18 0 16 176 13 167 62 184 24 8 44 13 44 11 0 -2 24 12 53 31
28 19 62 37 75 40 12 4 22 10 22 15 0 13 101 90 110 84 4 -3 11 5 15 18 4 14
8 17 12 9 3 -7 0 -18 -5 -25 -7 -9 -6 -30 5 -69 l16 -56 -48 -58 c-65 -80
-132 -154 -139 -154 -4 0 -4 14 -1 32 4 18 3 30 0 26 -3 -3 -8 -17 -11 -31 -8
-47 -19 -64 -64 -103 -59 -51 -145 -114 -156 -114 -5 -1 -27 -16 -48 -35 -32
-29 -36 -35 -19 -35 38 0 294 189 393 291 120 123 151 164 128 171 -8 3 -4 15
12 37 23 33 23 33 1 22 -13 -7 -19 -17 -14 -24 5 -8 2 -8 -9 1 -26 21 -30 60
-11 120 9 31 20 61 24 65 4 5 15 -13 24 -40 43 -117 43 -116 72 -110 60 11
264 -149 395 -310 77 -95 182 -242 239 -335 53 -89 78 -89 28 0 -81 145 -235
349 -349 463 -88 89 -194 165 -264 190 -21 8 -41 21 -43 29 -13 38 -66 146
-79 161 -13 15 -14 31 -4 120 7 57 12 199 12 314 1 242 -15 388 -67 623 -31
138 -33 157 -21 180 31 59 157 189 296 306 180 151 177 150 455 151 l191 0 72
-54 c40 -29 85 -68 100 -87 26 -31 34 -35 98 -40 59 -5 79 -2 121 16 61 26
108 71 100 97 -10 35 -76 186 -92 209 -13 21 -13 27 0 56 8 18 26 72 40 120
25 83 29 90 90 146 36 33 84 72 107 87 24 16 62 47 85 69 23 21 64 51 90 65
26 14 53 37 60 51 17 33 16 140 -1 163 -16 20 -141 48 -171 37 -17 -6 -16 -8
10 -13 17 -3 54 -9 83 -12 52 -7 52 -7 54 -43 3 -63 -2 -115 -14 -130 -7 -7
-32 -24 -57 -37 -25 -13 -52 -33 -59 -44 -18 -31 -29 -26 -36 17 -8 52 -44
103 -86 124 -42 21 -100 24 -100 5 0 -8 13 -13 35 -14 62 -2 109 -46 126 -120
12 -52 6 -64 -44 -95 -23 -15 -53 -39 -67 -53 -13 -14 -31 -25 -41 -25 -10 0
-26 -12 -37 -27 -34 -49 -114 -235 -115 -269 -1 -19 -6 -34 -10 -34 -5 0 -5
-4 -2 -10 3 -5 14 -10 24 -10 12 0 21 -13 29 -37 6 -20 10 -39 7 -41 -2 -2
-19 2 -38 9 -30 11 -40 9 -81 -10 -49 -24 -102 -83 -91 -101 11 -17 23 -11 29
15 9 36 72 75 123 75 40 0 42 -2 72 -57 36 -66 37 -74 14 -96 -25 -22 -124
-55 -153 -50 -14 2 -41 19 -60 37 -19 18 -68 55 -109 82 -60 39 -70 49 -55 55
11 3 34 25 52 48 47 59 124 101 187 101 39 0 46 3 37 12 -19 19 -82 13 -130
-11 -50 -25 -119 -85 -127 -109 -4 -15 -18 -17 -116 -14 -103 4 -342 -12 -375
-25 -11 -4 -14 4 -14 34 0 44 -30 140 -54 175 -12 17 -13 25 -4 36 10 11 3 13
-43 11 -30 -1 -62 -6 -71 -11 -26 -13 -23 13 8 73 23 46 64 168 94 280 l11 40
159 -3 c87 -2 156 1 153 5 -3 5 10 31 28 58 24 34 41 49 57 49 21 0 112 -38
112 -46 0 -12 -104 -103 -111 -98 -24 15 -4 -18 40 -63 27 -28 53 -59 59 -69
9 -15 11 -15 12 -4 0 18 -22 53 -59 93 l-26 28 50 49 c28 27 53 49 56 50 13 0
108 -76 130 -104 l22 -28 -54 -54 c-29 -30 -50 -54 -45 -54 4 0 -2 -9 -15 -20
-13 -10 -19 -19 -14 -19 6 0 39 29 75 64 l65 65 23 -27 c12 -16 47 -77 77
-138 44 -88 54 -104 55 -80 0 33 -48 140 -98 219 l-31 48 32 33 c106 106 113
125 15 40 l-63 -55 -35 38 c-19 21 -53 51 -74 67 l-39 30 59 53 c32 29 52 52
43 50 -9 -2 -31 12 -48 30 -18 18 -35 31 -39 28 -4 -2 -13 2 -19 9 -10 11 -7
18 18 36 28 19 36 21 90 12 66 -11 80 0 22 16 -52 15 -76 14 -133 -5 -55 -18
-136 -96 -224 -217 l-50 -67 -120 0 c-67 0 -127 4 -133 8 -10 6 -8 30 7 107
27 131 35 314 21 445 -13 124 -81 466 -110 560 -12 36 -29 77 -38 92 -53 79
-143 185 -210 248 -105 98 -333 253 -349 237 -2 -2 12 -12 31 -23 19 -10 35
-21 35 -25 0 -3 12 -11 26 -18 98 -44 335 -267 413 -388 50 -78 54 -87 54
-146 0 -34 -4 -82 -8 -105 l-7 -43 -43 70 c-73 119 -259 337 -346 408 -15 11
-28 26 -30 32 -2 6 -14 8 -26 5 l-23 -6 24 -19 24 -19 -3 -212 c-4 -257 -18
-365 -85 -635 -28 -113 -49 -208 -46 -210 3 -3 8 8 12 23 3 16 14 54 24 84 9
30 25 87 34 125 10 39 20 77 23 85 3 8 7 24 8 35 1 11 9 59 18 107 28 152 40
307 33 451 -4 108 -3 138 7 135 15 -5 188 -205 257 -297 59 -78 120 -190 120
-220 0 -97 -224 -369 -442 -535 -89 -69 -130 -113 -205 -223 -23 -34 -43 -53
-57 -54 -17 -1 -18 -2 -3 -6 9 -2 17 -6 17 -7 0 -2 -13 -33 -30 -68 -63 -139
-109 -302 -119 -416 -6 -60 -13 -120 -16 -134 -9 -35 16 -74 81 -124 33 -25
59 -51 59 -58 0 -6 16 -24 35 -39 51 -41 80 -74 80 -91 0 -21 -86 -91 -161
-131 -37 -19 -70 -35 -73 -35 -3 0 -6 18 -6 39 0 22 -7 70 -16 108 -15 68 -15
68 8 86 55 42 68 57 68 77 0 20 -2 20 -24 -7 -60 -71 -182 -95 -275 -53 -49
23 -51 23 -51 12 0 -5 21 -19 48 -33 38 -19 62 -24 124 -24 l77 0 11 -55 c13
-69 12 -152 -3 -162 -20 -12 -132 -28 -203 -28 -67 0 -182 15 -191 24 -3 3 8
24 25 48 53 77 92 165 92 207 0 24 13 68 35 113 32 68 33 74 17 86 -10 8 -13
16 -7 20 6 4 10 18 10 32 0 21 68 114 85 115 3 1 14 6 26 12 11 6 38 13 60 15
47 5 53 24 7 21 -48 -3 -104 -36 -143 -82 -19 -23 -38 -41 -42 -41 -3 0 -10
15 -13 33 -30 137 -120 392 -157 442 -129 174 -278 294 -443 360 -38 15 -71
28 -73 30 -6 5 99 123 115 129 22 9 45 -20 80 -104 31 -75 49 -100 39 -55 -4
17 -25 66 -47 109 l-39 79 27 30 c39 40 178 131 249 163 85 38 236 74 309 74
74 0 66 14 90 -170 9 -69 20 -134 26 -145 7 -15 8 -9 3 20 -3 22 -8 62 -10 90
-5 67 -23 186 -29 196 -15 23 113 17 239 -11 27 -6 51 -9 53 -6 7 7 -141 38
-218 45 l-72 6 -27 135 c-46 227 -92 366 -175 527 -29 57 -50 105 -47 107 4 2
40 4 80 4 40 0 76 2 79 6 4 3 -37 6 -90 6 l-96 0 -18 30 c-9 17 -21 30 -25 30
-4 0 -8 5 -8 11 0 12 -46 70 -55 69 -3 0 -17 12 -30 27 -13 16 -25 25 -25 21z
m-801 -171 c-2 -1 -13 -9 -24 -17 -19 -14 -19 -14 -6 3 7 9 18 17 24 17 6 0 8
-1 6 -3z m987 -84 c101 -170 173 -386 227 -689 l6 -31 -78 -7 c-180 -15 -376
-91 -520 -202 l-75 -57 -15 24 c-72 110 -353 412 -453 488 -46 34 -56 47 -49
60 5 9 44 50 88 92 177 172 431 301 688 350 144 27 148 27 181 -28z m-1276
-313 c90 -27 223 -85 256 -111 8 -7 -4 -33 -42 -90 -30 -44 -74 -122 -99 -174
-48 -100 -60 -107 -84 -54 l-14 32 -34 -54 c-43 -70 -87 -183 -109 -286 -9
-46 -20 -83 -24 -83 -3 0 -45 16 -93 35 -96 39 -97 39 -97 26 0 -10 152 -71
177 -71 13 0 15 -9 9 -57 -47 -417 40 -769 254 -1028 30 -36 58 -65 63 -65 4
0 37 -25 73 -55 35 -30 85 -66 109 -81 25 -14 45 -29 45 -34 0 -10 -62 -51
-129 -84 l-53 -27 -41 27 c-61 40 -212 190 -271 269 -173 230 -266 461 -300
745 -19 152 -23 552 -7 630 40 194 100 351 182 471 36 54 116 149 124 149 1 0
48 -14 105 -30z m395 -218 c126 -110 351 -354 410 -445 l18 -27 -54 -58 c-30
-31 -64 -70 -75 -85 -20 -28 -54 -30 -54 -2 0 7 -14 15 -30 19 -17 3 -78 24
-135 47 -180 70 -395 230 -380 282 24 79 178 347 200 347 6 0 51 -35 100 -78z
m2183 -515 c18 -21 32 -134 32 -251 0 -249 -129 -623 -248 -718 -26 -21 -63
-51 -82 -68 -88 -75 -290 -75 -430 0 -27 14 -24 43 16 164 106 326 263 543
516 717 31 21 81 68 110 104 54 66 68 74 86 52z m-2376 -162 c40 -20 138 -56
218 -82 241 -76 360 -140 491 -265 109 -102 210 -250 242 -353 42 -135 46
-257 11 -296 -55 -61 -342 -149 -484 -149 -104 0 -159 27 -255 124 -46 47
-104 114 -129 149 -90 126 -161 312 -186 486 -19 126 -8 421 15 421 2 0 36
-16 77 -35z m3028 -147 c27 -32 25 -38 -22 -77 -38 -32 -43 -34 -72 -22 -17 7
-48 18 -68 24 -21 6 -38 14 -38 18 0 4 15 18 33 31 17 12 41 31 52 41 27 25
88 17 115 -15z m-971 -925 c-79 -102 -206 -243 -219 -243 -3 0 -25 29 -49 65
l-42 65 20 34 c20 31 25 34 60 29 51 -7 184 23 213 47 29 24 34 25 17 3z
m-311 -38 c10 -4 10 -10 2 -25 -15 -29 -29 -25 -85 25 l-50 45 60 -20 c33 -12
66 -23 73 -25z m-622 -37 c-6 -31 -74 -156 -110 -202 -15 -19 -16 -18 -67 3
-29 11 -54 20 -56 17 -2 -2 19 -13 47 -25 27 -12 50 -25 50 -29 0 -4 -19 -27
-42 -52 -23 -25 -53 -58 -67 -74 l-26 -29 32 22 c18 12 54 46 81 77 l49 55 68
-12 c65 -11 262 -7 333 7 l32 6 2 -73 2 -74 5 79 6 78 46 17 c51 20 176 98
198 124 7 9 17 17 22 17 11 0 79 -101 79 -117 0 -6 -33 -32 -74 -58 -41 -25
-80 -53 -87 -61 -61 -74 -458 -211 -634 -220 -68 -3 -261 19 -274 32 -2 2 2
10 9 19 10 12 10 15 -4 15 -9 0 -16 -4 -16 -10 0 -19 -60 -10 -155 24 -52 19
-103 32 -112 30 -40 -11 -423 149 -423 176 0 4 20 15 44 24 24 9 63 34 87 56
50 45 51 46 110 24 24 -9 82 -22 129 -30 171 -28 328 -13 480 47 115 46 134
57 186 110 26 27 50 47 52 44 2 -2 2 -19 -2 -37z m837 -495 c59 -276 84 -659
55 -863 -6 -47 -11 -121 -10 -165 l2 -80 -47 -40 c-26 -22 -62 -50 -80 -62
-39 -27 -38 -38 -18 142 21 183 30 599 16 775 l-10 145 31 113 c17 61 34 112
38 112 4 0 14 -35 23 -77z m-2119 -242 c20 -27 36 -52 36 -56 0 -9 -39 -42
-72 -60 -15 -8 -52 -53 -83 -100 l-56 -86 -39 43 c-22 24 -39 46 -40 50 0 4
31 42 68 85 38 43 83 99 102 126 18 26 37 47 41 47 4 0 23 -22 43 -49z m567
-59 c36 -11 87 -29 113 -40 26 -12 44 -17 41 -12 -16 25 17 6 46 -27 106 -121
262 -432 347 -693 36 -109 82 -273 82 -291 0 -22 -147 7 -399 78 -140 40 -248
83 -231 93 14 9 -10 130 -40 196 -22 51 -107 182 -164 254 l-35 45 67 32 c66
31 148 91 138 100 -2 3 -31 -13 -63 -35 -71 -48 -123 -75 -130 -68 -3 3 16 40
42 82 48 76 75 156 75 222 0 26 -4 33 -16 30 -11 -2 -22 -22 -30 -58 -22 -86
-106 -247 -178 -336 -55 -70 -183 -191 -191 -182 -1 2 -5 24 -8 50 -6 48 -22
88 -35 88 -4 0 -8 -39 -10 -87 -1 -48 -7 -92 -12 -97 -7 -7 -10 0 -10 20 -1
75 -56 141 -161 195 -33 16 -59 33 -59 38 0 4 15 24 34 43 19 19 44 55 56 79
31 60 97 157 134 197 37 39 106 77 179 97 77 22 329 14 418 -13z m1310 -325
c24 -17 38 -37 43 -58 11 -58 -10 -57 -70 1 -53 53 -63 67 -79 119 -7 23 -7
23 31 -6 22 -16 55 -41 75 -56z m-251 -6 c0 -20 -13 -44 -42 -76 -64 -70 -64
-71 -30 -125 32 -52 29 -60 -22 -60 -18 0 -26 10 -40 53 -9 28 -20 57 -22 63
-4 10 140 174 152 174 2 0 4 -13 4 -29z m170 -77 c0 -8 -4 -12 -10 -9 -5 3
-10 13 -10 21 0 8 5 12 10 9 6 -3 10 -13 10 -21z m-171 -44 c-2 -50 1 -64 19
-83 24 -25 20 -37 -10 -37 -17 0 -78 72 -78 92 0 9 60 88 67 88 2 0 3 -27 2
-60z m241 -7 c0 -13 -39 -53 -52 -53 -11 0 -10 13 4 67 l11 46 18 -24 c10 -13
19 -29 19 -36z m-2181 -89 c12 -15 21 -34 21 -43 0 -21 -36 -79 -63 -102 -42
-35 -87 -14 -48 22 12 11 21 29 21 41 0 18 -4 20 -35 15 -19 -3 -35 -3 -35 -1
0 3 16 26 36 50 43 52 72 57 103 18z m-119 -129 c-7 -9 -15 -13 -17 -11 -6 6
20 36 26 30 2 -2 -2 -10 -9 -19z m168 -30 c12 -3 22 -13 22 -20 0 -8 6 -12 14
-9 20 8 63 -50 79 -104 15 -50 12 -180 -4 -197 -5 -5 -9 0 -9 14 0 85 -144
190 -240 175 -33 -5 -40 -4 -40 10 0 9 -4 16 -10 16 -17 0 -11 -38 8 -44 9 -3
38 -5 64 -5 67 1 142 -41 175 -99 25 -42 26 -48 16 -111 -6 -36 -20 -86 -31
-111 -11 -25 -23 -72 -26 -105 -4 -33 -13 -69 -21 -80 -9 -11 -22 -30 -31 -42
-9 -12 -18 -48 -20 -80 -8 -101 -37 -153 -86 -153 -34 0 -95 24 -120 47 -39
35 -9 239 41 281 48 40 87 237 61 306 -22 60 -147 79 -215 33 -20 -14 -47 -40
-61 -58 -51 -68 -124 -209 -124 -238 0 -21 -6 -32 -20 -36 -11 -3 -20 -15 -20
-25 0 -11 -14 -35 -31 -55 l-31 -35 -21 27 c-12 16 -25 30 -29 31 -15 7 -8 28
22 60 16 18 34 30 40 27 5 -3 8 0 5 7 -3 7 82 113 191 238 108 124 212 245
232 268 34 41 39 44 73 38 31 -5 43 -2 66 19 15 13 35 22 43 20 8 -2 25 -6 38
-10z m-208 -12 c0 -9 5 -3 -209 -247 -132 -150 -157 -174 -173 -165 -10 5 -18
14 -18 19 0 11 74 60 89 60 13 0 50 48 66 85 12 30 221 255 237 255 4 0 8 -3
8 -7z m1229 -282 c53 -17 116 -36 141 -43 l45 -13 3 -149 c2 -135 1 -148 -14
-142 -15 6 -138 38 -263 69 -60 15 -76 42 -67 115 10 82 38 192 49 192 5 0 53
-13 106 -29z m-1263 11 c41 -4 64 -38 64 -96 0 -50 -2 -54 -30 -66 -62 -26
-135 7 -165 75 -13 29 -13 29 -14 5 -1 -31 30 -79 61 -96 33 -19 103 -17 122
2 15 14 16 14 16 -4 0 -28 -42 -133 -66 -166 -11 -16 -29 -29 -40 -30 -10 -1
-34 -10 -53 -20 -49 -26 -104 -17 -147 25 -19 18 -34 40 -34 49 0 9 -5 21 -11
27 -7 7 -1 26 22 64 18 30 34 56 36 59 2 2 18 -10 34 -28 37 -40 95 -70 143
-75 47 -5 47 9 -1 18 -50 9 -102 37 -135 72 -26 27 -27 29 -11 61 21 43 82
109 111 119 21 8 41 9 98 5z m-403 -28 c59 -30 61 -34 30 -66 -17 -18 -33 -26
-45 -22 -26 8 -43 -5 -24 -19 14 -11 12 -16 -15 -44 -16 -18 -34 -33 -40 -33
-5 0 -9 -6 -9 -13 0 -7 -18 -31 -40 -52 -22 -21 -40 -35 -40 -30 0 15 59 133
70 140 5 3 10 13 10 22 0 23 51 133 62 133 5 0 23 -7 41 -16z m45 -133 c10 -6
5 -18 -20 -49 -37 -46 -45 -49 -63 -25 -11 14 -8 22 14 50 26 33 45 40 69 24z
m-83 -91 c4 -14 -3 -32 -25 -60 -29 -36 -33 -38 -58 -28 -15 7 -29 13 -31 15
-8 6 82 93 95 93 7 0 16 -9 19 -20z m-91 -103 c16 -12 14 -17 -25 -65 -23 -29
-46 -52 -51 -52 -4 0 -8 20 -8 44 0 37 5 48 28 65 32 24 33 25 56 8z m75 -73
l24 -35 -22 -30 c-13 -17 -24 -38 -26 -47 -3 -24 -44 -16 -77 16 -16 14 -28
30 -28 35 0 15 84 105 95 101 6 -3 21 -20 34 -40z m-249 -114 c10 -24 10 -36
0 -60 -14 -35 -23 -32 -46 16 -16 33 -15 36 1 54 24 27 30 25 45 -10z m-60
-76 c9 -27 9 -38 0 -49 -10 -12 -16 -9 -37 21 -23 34 -23 37 -7 55 21 23 29
18 44 -27z m-51 -56 c6 -24 10 -71 8 -106 -4 -67 -17 -98 -17 -41 0 32 -25 94
-51 130 -9 12 -8 20 7 37 27 32 40 27 53 -20z m3484 -284 c87 -58 245 -90 399
-80 82 6 147 20 252 53 14 5 18 2 13 -8 -3 -8 -26 -61 -50 -119 -47 -113 -54
-119 -127 -112 l-37 4 5 70 c6 91 -13 85 -23 -7 -4 -39 -11 -65 -18 -65 -65 0
-278 50 -284 67 -3 7 0 26 5 43 6 16 7 30 2 30 -5 0 -14 -16 -20 -35 -6 -19
-16 -35 -21 -35 -17 0 -92 41 -141 77 -27 19 -48 30 -48 24 0 -18 61 -69 120
-98 30 -15 58 -32 61 -36 3 -5 -13 -72 -37 -150 -24 -78 -44 -150 -44 -160 0
-15 -6 -17 -37 -11 -21 4 -76 21 -122 40 -77 30 -82 31 -55 9 16 -13 64 -35
106 -50 43 -15 76 -30 74 -34 -5 -8 93 -14 249 -15 77 -1 112 -5 118 -14 5 -7
12 -10 16 -7 9 5 103 -84 144 -136 l25 -32 -76 -74 c-67 -65 -79 -73 -113 -73
-30 0 -37 3 -33 15 5 11 -1 15 -20 15 -31 0 -116 81 -116 111 0 10 -5 16 -12
14 -7 -2 -35 22 -63 55 -48 56 -75 78 -75 62 0 -5 25 -38 55 -75 30 -36 55
-71 55 -77 0 -6 -7 -23 -16 -38 l-17 -27 24 28 24 27 42 -45 c33 -35 38 -45
24 -45 -56 0 -250 87 -243 108 2 7 0 12 -5 12 -4 1 -45 3 -90 5 -87 4 -147 25
-194 68 -25 22 -26 28 -19 69 20 107 196 532 229 552 6 4 11 14 11 22 0 18 49
104 59 104 3 0 23 -12 44 -26z m237 -262 c52 -12 112 -24 133 -27 21 -3 37
-12 37 -19 0 -7 -13 -58 -29 -112 -16 -55 -32 -112 -35 -128 l-7 -28 -149 3
c-81 2 -151 7 -155 11 -4 3 12 73 35 155 52 187 48 176 63 170 6 -2 55 -14
107 -25z m-2242 -123 l43 -47 -42 -93 c-22 -52 -42 -96 -44 -98 -6 -6 -77 41
-117 77 -25 23 -38 29 -38 19 0 -18 66 -79 109 -102 17 -8 31 -17 31 -18 0 -6
-68 -168 -72 -172 -6 -7 -98 25 -126 43 -12 8 -25 12 -28 10 -7 -8 38 -35 98
-59 51 -21 73 -26 111 -28 34 -2 16 -18 -40 -35 -69 -21 -125 -52 -173 -95
l-35 -31 57 33 c32 19 72 40 89 47 30 13 33 12 51 -10 23 -29 88 -138 88 -148
-1 -4 -40 -26 -88 -50 -88 -44 -139 -78 -130 -88 3 -3 46 18 94 46 92 53 126
66 142 56 9 -5 34 -98 46 -173 5 -33 5 -33 -37 -33 -67 0 -218 35 -283 66 -85
40 -203 155 -177 173 8 6 59 158 107 321 36 121 184 408 245 473 l26 28 25
-33 c14 -18 44 -54 68 -79z m2568 86 c-14 -37 -36 -134 -42 -188 -4 -32 -11
-60 -15 -63 -12 -7 22 -44 41 -44 24 0 132 -113 119 -124 -2 -2 -30 -15 -62
-29 l-59 -27 -26 32 c-36 43 -113 113 -121 111 -4 -1 -7 7 -8 17 -1 11 9 23
28 30 16 7 27 16 24 20 -3 5 1 11 7 14 13 6 1 4 -54 -10 -34 -8 -34 -3 -9 84
11 37 27 93 36 124 l15 57 53 4 c28 2 58 4 66 5 8 1 11 -4 7 -13z m-2471 -170
c72 -48 142 -68 265 -73 103 -4 123 -2 188 20 39 14 72 22 72 19 0 -10 -114
-206 -124 -213 -15 -10 -174 -10 -180 0 -2 4 4 27 15 51 11 24 17 46 14 49 -3
3 -15 -18 -27 -46 -17 -37 -29 -52 -43 -52 -57 0 -279 62 -291 81 -4 7 65 189
73 189 1 0 18 -11 38 -25z m-68 -214 c26 -10 93 -29 148 -41 55 -13 101 -24
103 -25 1 -1 -7 -24 -19 -51 -12 -27 -21 -53 -20 -57 1 -5 -15 -6 -36 -3 -21
4 -96 11 -167 16 -71 5 -133 13 -138 18 -10 10 56 162 71 162 6 0 32 -8 58
-19z m446 -100 c-8 -20 -27 -64 -40 -98 -18 -45 -30 -63 -43 -63 -17 0 -18 -7
-13 -74 l6 -74 -46 21 c-38 18 -47 27 -52 56 -9 46 -32 91 -48 91 -9 0 -9 -2
0 -8 12 -8 34 -111 24 -116 -3 -1 -37 -4 -76 -5 -38 -1 -97 -8 -130 -16 -33
-7 -63 -11 -66 -7 -3 4 -29 42 -58 85 l-52 77 24 9 c118 45 280 38 412 -19 46
-20 48 -20 32 -2 -10 11 -35 27 -57 37 -26 12 -37 22 -31 29 4 6 11 23 15 38
17 75 15 73 119 74 l96 1 -16 -36z m2236 1 c27 -52 36 -109 21 -126 -6 -8 -23
-14 -38 -14 -15 0 -42 -2 -59 -6 -29 -7 -33 -5 -33 13 0 11 -9 43 -20 70 l-19
50 51 25 c29 14 58 26 65 26 7 0 21 -17 32 -38z m-140 -91 c18 -54 14 -68 -19
-75 -34 -6 -150 3 -149 13 0 3 31 31 67 62 73 62 80 62 101 0z m-2299 -301 c0
-59 4 -100 10 -100 16 0 23 45 18 120 -4 78 -2 80 57 56 29 -12 35 -20 35 -44
0 -56 -12 -92 -28 -90 -10 2 -18 -5 -20 -17 -2 -11 -7 -23 -10 -27 -9 -10
-177 -46 -231 -50 l-45 -3 -12 70 c-7 39 -19 89 -27 112 l-15 41 56 15 c31 8
92 15 135 16 l77 1 0 -100z"/>
<path d="M3386 2992 c-3 -5 5 -15 19 -22 13 -7 34 -32 47 -56 22 -42 47 -62
34 -28 -3 9 -6 19 -6 24 0 13 -50 69 -70 80 -11 6 -21 6 -24 2z"/>
<path d="M3320 2840 c0 -5 5 -10 10 -10 6 0 10 5 10 10 0 6 -4 10 -10 10 -5 0
-10 -4 -10 -10z"/>
<path d="M3350 2841 c0 -5 12 -12 28 -16 15 -3 35 -14 45 -22 14 -13 17 -14
17 -2 0 16 -50 49 -74 49 -9 0 -16 -4 -16 -9z"/>
<path d="M3255 2683 c-38 -9 -42 -25 -5 -22 72 4 92 -1 121 -32 34 -36 50 -32
25 6 -26 40 -87 61 -141 48z"/>
<path d="M6183 1549 c-26 -23 -52 -49 -57 -58 -9 -14 14 4 74 61 10 9 20 14
23 12 2 -3 7 2 10 11 9 22 3 19 -50 -26z"/>
<path d="M5810 1555 c-13 -14 -19 -25 -13 -25 6 0 18 11 27 25 9 14 15 25 13
25 -2 0 -14 -11 -27 -25z"/>
<path d="M5776 1504 c-5 -14 -4 -15 9 -4 17 14 19 20 6 20 -5 0 -12 -7 -15
-16z"/>
<path d="M6092 1460 c-18 -29 -15 -38 4 -12 9 13 14 25 12 27 -2 2 -9 -5 -16
-15z"/>
<path d="M4265 7540 c-3 -5 -2 -10 4 -10 5 0 13 5 16 10 3 6 2 10 -4 10 -5 0
-13 -4 -16 -10z"/>
<path d="M4225 7520 c-3 -6 1 -7 9 -4 18 7 21 14 7 14 -6 0 -13 -4 -16 -10z"/>
<path d="M4077 7453 c-37 -20 -66 -38 -64 -40 4 -4 117 55 132 68 15 15 3 10
-68 -28z"/>
<path d="M5170 7354 c36 -8 100 -9 100 -2 0 5 -26 7 -57 7 -32 -1 -51 -3 -43
-5z"/>
<path d="M5293 7343 c9 -2 23 -2 30 0 6 3 -1 5 -18 5 -16 0 -22 -2 -12 -5z"/>
<path d="M5348 7333 c6 -2 18 -2 25 0 6 3 1 5 -13 5 -14 0 -19 -2 -12 -5z"/>
<path d="M5418 7323 c7 -3 16 -2 19 1 4 3 -2 6 -13 5 -11 0 -14 -3 -6 -6z"/>
<path d="M5798 6440 c28 -26 78 -100 86 -127 6 -20 36 -34 36 -18 0 33 -90
150 -121 158 l-21 6 20 -19z"/>
<path d="M5260 6190 c0 -11 4 -20 9 -20 5 0 7 9 4 20 -3 11 -7 20 -9 20 -2 0
-4 -9 -4 -20z"/>
<path d="M5276 6088 c5 -42 14 -49 14 -10 0 17 -4 33 -9 36 -4 3 -7 -9 -5 -26z"/>
<path d="M7107 6045 c-58 -45 -62 -69 -9 -73 53 -4 96 -48 97 -102 0 -46 9
-50 41 -15 13 14 26 25 29 25 4 0 26 14 50 30 24 17 48 30 54 30 6 0 11 4 11
9 0 11 54 31 82 31 33 0 76 -53 95 -119 19 -65 33 -79 33 -33 -1 50 -58 152
-86 152 -6 0 -17 7 -24 15 -7 9 -16 12 -19 8 -3 -4 -24 -14 -45 -22 -35 -12
-40 -12 -48 3 -12 21 -133 82 -179 91 -29 5 -41 1 -82 -30z m181 -42 c39 -18
72 -37 72 -42 0 -6 -102 -76 -131 -89 -3 -1 -11 15 -18 37 -12 43 -55 81 -90
81 -31 0 -26 17 11 40 38 23 57 20 156 -27z"/>
<path d="M7210 6002 c0 -5 10 -17 21 -28 22 -19 22 -19 10 3 -12 24 -31 39
-31 25z"/>
<path d="M5280 6029 c0 -8 5 -21 10 -29 8 -12 9 -10 7 7 -4 26 -17 43 -17 22z"/>
<path d="M5302 5920 c0 -14 2 -19 5 -12 2 6 2 18 0 25 -3 6 -5 1 -5 -13z"/>
<path d="M5300 5847 c0 -23 3 -27 23 -22 12 3 51 10 87 15 l65 9 -77 -4 c-66
-4 -79 -2 -87 13 -9 14 -10 13 -11 -11z"/>
<path d="M5150 5829 c-62 -18 -166 -59 -186 -75 -12 -9 -4 -8 21 5 56 27 169
60 240 70 l60 9 -50 0 c-27 0 -66 -4 -85 -9z"/>
<path d="M7218 5768 c13 -6 37 -38 53 -70 16 -32 31 -58 33 -58 8 0 -26 87
-42 106 -9 12 -28 25 -42 28 l-25 6 23 -12z"/>
<path d="M6457 5693 c33 -29 95 -141 87 -155 -3 -4 -47 -8 -97 -8 -51 0 -98
-4 -104 -8 -7 -5 33 -7 90 -5 56 1 108 -1 114 -5 22 -14 38 -163 25 -234 -5
-35 -13 -71 -17 -80 -10 -26 12 -22 27 5 14 24 18 220 6 274 l-7 32 93 -6 c91
-6 166 1 166 15 0 4 -41 5 -91 3 -50 -1 -109 0 -132 3 -40 6 -44 10 -70 66
-26 57 -89 130 -111 130 -5 0 4 -12 21 -27z"/>
<path d="M6850 5541 c0 -6 4 -13 10 -16 6 -3 7 1 4 9 -7 18 -14 21 -14 7z"/>
<path d="M6860 5505 c0 -5 5 -17 10 -25 5 -8 10 -10 10 -5 0 6 -5 17 -10 25
-5 8 -10 11 -10 5z"/>
<path d="M6875 5430 c-3 -5 -1 -10 4 -10 6 0 11 5 11 10 0 6 -2 10 -4 10 -3 0
-8 -4 -11 -10z"/>
<path d="M6882 5365 c-1 -11 -5 -38 -8 -60 -4 -32 -3 -36 6 -22 6 9 9 36 7 60
-2 23 -4 33 -5 22z"/>
<path d="M6854 5234 c-4 -16 -11 -35 -17 -41 -6 -9 -6 -13 1 -13 11 0 35 70
27 78 -2 2 -7 -9 -11 -24z"/>
<path d="M3907 4553 c-13 -12 -7 -23 13 -23 11 0 20 7 20 15 0 15 -21 21 -33
8z"/>
<path d="M3980 4528 c67 -22 174 -100 284 -208 61 -60 125 -119 141 -132 52
-39 -43 68 -142 162 -131 125 -201 170 -283 184 l-35 5 35 -11z"/>
<path d="M5370 4336 c0 -8 4 -17 9 -20 5 -4 7 3 4 14 -6 23 -13 26 -13 6z"/>
<path d="M3600 3480 c6 -11 13 -20 16 -20 2 0 0 9 -6 20 -6 11 -13 20 -16 20
-2 0 0 -9 6 -20z"/>
<path d="M5133 3466 c11 -29 36 -162 43 -228 4 -38 11 -68 15 -68 5 0 6 12 4
28 -3 15 -9 63 -15 107 -10 77 -36 175 -47 175 -3 0 -3 -7 0 -14z"/>
<path d="M3010 3455 c0 -2 10 -10 23 -16 20 -11 21 -11 8 4 -13 16 -31 23 -31
12z"/>
<path d="M2614 3428 l-19 -23 23 19 c21 18 27 26 19 26 -2 0 -12 -10 -23 -22z"/>
<path d="M2870 3280 c-6 -11 -8 -20 -6 -20 3 0 10 9 16 20 6 11 8 20 6 20 -3
0 -10 -9 -16 -20z"/>
<path d="M2857 3221 c-4 -17 -3 -21 5 -13 5 5 8 16 6 23 -3 8 -7 3 -11 -10z"/>
<path d="M2865 3180 c3 -5 8 -10 11 -10 2 0 4 5 4 10 0 6 -5 10 -11 10 -5 0
-7 -4 -4 -10z"/>
<path d="M5192 3080 c0 -14 2 -19 5 -12 2 6 2 18 0 25 -3 6 -5 1 -5 -13z"/>
<path d="M4972 2958 c12 -102 31 -181 44 -185 12 -4 9 13 -27 197 -16 83 -27
75 -17 -12z"/>
<path d="M2355 2600 c-3 -6 1 -7 9 -4 18 7 21 14 7 14 -6 0 -13 -4 -16 -10z"/>
<path d="M2277 2520 c-15 -12 -24 -27 -20 -35 8 -23 25 -18 18 5 -5 16 0 23
27 35 18 8 26 14 17 15 -9 0 -28 -9 -42 -20z"/>
<path d="M6572 2500 c-42 -40 -40 -98 4 -127 31 -20 46 -8 16 13 -24 16 -29
53 -12 85 11 20 49 27 51 9 1 -5 2 -14 3 -20 2 -19 21 -11 24 10 8 48 -47 66
-86 30z"/>
<path d="M2291 2456 c4 -4 -12 -26 -35 -49 -76 -79 -120 -127 -115 -127 3 0
42 38 87 84 56 58 78 87 70 92 -7 4 -10 4 -7 0z"/>
<path d="M2075 2260 c-38 -5 -42 -7 -17 -8 32 -2 45 -25 20 -35 -8 -4 -9 -6
-2 -6 6 -1 17 6 24 14 11 13 15 13 40 0 73 -38 91 -128 49 -239 -12 -31 -19
-59 -16 -63 13 -13 35 19 57 85 32 94 24 147 -31 196 -21 20 -46 36 -55 36
-10 0 -14 6 -10 15 3 8 2 14 -2 13 -4 0 -29 -4 -57 -8z"/>
<path d="M2305 2260 c-3 -5 -1 -10 4 -10 6 0 11 5 11 10 0 6 -2 10 -4 10 -3 0
-8 -4 -11 -10z"/>
<path d="M1992 2250 c-32 -13 -59 -41 -71 -73 -15 -38 -14 -47 4 -47 21 0 19
-7 -10 -38 -14 -15 -28 -43 -31 -62 -9 -44 -18 -50 -74 -45 -37 4 -40 3 -14
-4 51 -13 60 -22 39 -38 -23 -16 -12 -17 14 -1 25 15 45 0 73 -56 17 -34 21
-60 22 -146 0 -60 -6 -126 -13 -153 -15 -51 -8 -73 14 -44 17 24 35 128 35
208 0 59 3 67 35 101 19 20 35 41 35 46 0 6 7 13 16 16 8 3 13 12 9 18 -3 7 2
3 11 -9 26 -35 37 -28 30 17 -5 30 -3 42 8 46 23 9 49 72 41 102 -7 31 -62 92
-82 92 -7 0 -13 5 -13 11 0 7 -20 10 -55 7 -62 -3 -69 5 -25 30 16 9 30 20 30
25 0 8 2 8 -28 -3z m66 -80 c22 -11 48 -30 56 -42 19 -27 21 -77 4 -113 l-12
-26 -13 23 c-16 30 -16 41 0 33 6 -4 -10 13 -37 37 -36 32 -47 48 -41 59 7 12
6 12 -7 1 -11 -9 -23 -10 -42 -2 -30 11 -33 25 -8 39 26 16 54 13 100 -9z
m-54 -81 c33 -26 79 -115 71 -138 -3 -9 -6 -17 -6 -18 1 -2 -7 -11 -16 -22
-10 -10 -31 -35 -47 -56 l-30 -39 -13 41 c-8 23 -30 58 -50 78 -25 26 -34 41
-27 50 5 7 20 28 33 46 14 18 19 29 11 24 -15 -9 -7 9 18 38 19 22 24 21 56
-4z"/>
<path d="M1624 1967 c-30 -30 -59 -92 -73 -152 -6 -27 -15 -67 -20 -87 -8 -32
-6 -41 14 -62 13 -14 20 -27 17 -30 -3 -3 -3 -6 0 -6 3 0 11 7 18 16 8 8 9 14
4 12 -11 -4 -14 4 -14 32 0 14 7 20 22 20 17 0 19 -3 10 -12 -19 -19 -14 -33
6 -15 10 10 24 17 30 17 7 0 12 6 12 13 0 8 -14 11 -46 8 -44 -3 -46 -2 -39
20 24 80 113 159 179 159 35 0 39 -13 15 -46 l-21 -29 26 28 c14 15 29 27 34
27 28 0 95 -114 95 -161 0 -36 18 -38 34 -4 8 19 8 27 -1 33 -6 4 -20 26 -31
50 -10 24 -34 56 -52 73 -19 16 -32 33 -29 37 2 4 -26 5 -64 1 -67 -6 -101
-20 -147 -62 l-22 -20 8 30 c13 44 42 103 51 103 4 0 10 7 14 15 8 21 -5 18
-30 -8z"/>
<path d="M1695 1980 c-14 -7 -8 -8 20 -3 22 3 42 7 44 9 9 8 -45 2 -64 -6z"/>
<path d="M4207 1960 c-74 -64 -52 -143 36 -132 36 4 35 22 -2 22 -16 0 -34 7
-41 15 -26 31 23 95 73 95 36 0 32 24 -5 28 -18 2 -37 -7 -61 -28z"/>
<path d="M1693 1806 c-45 -16 -48 -23 -8 -18 20 2 38 9 41 14 10 15 1 16 -33
4z"/>
<path d="M1620 1780 c-9 -6 -10 -10 -3 -10 6 0 15 5 18 10 8 12 4 12 -15 0z"/>
<path d="M1456 1625 c-41 -64 -50 -80 -34 -65 17 17 62 90 55 90 -3 0 -12 -11
-21 -25z"/>
<path d="M1816 1593 c-6 -14 -5 -15 5 -6 7 7 10 15 7 18 -3 3 -9 -2 -12 -12z"/>
<path d="M1863 1560 c-6 -14 -17 -40 -23 -58 -15 -39 -45 -62 -81 -62 -32 0
-42 9 -28 26 8 10 6 11 -15 1 -14 -7 -27 -20 -30 -29 -3 -14 0 -16 11 -9 9 4
35 6 59 3 72 -8 129 49 122 121 l-4 32 -11 -25z"/>
<path d="M1400 1519 c-6 -11 -10 -25 -8 -30 2 -5 8 4 15 21 13 34 9 40 -7 9z"/>
<path d="M1385 1458 c-4 -9 -5 -27 -3 -39 3 -23 3 -23 15 2 6 15 8 32 3 40 -7
11 -10 10 -15 -3z"/>
</g>
</svg>
